<?xml version="1.0" encoding="UTF-8"?> <svg xmlns="http://www.w3.org/2000/svg" xmlns:xlink="http://www.w3.org/1999/xlink" id="Layer_1" data-name="Layer 1" viewBox="0 0 588 193"><defs><linearGradient id="linear-gradient" x1="30.6" y1="79.05" x2="124.98" y2="79.05" gradientUnits="userSpaceOnUse"><stop offset="0" stop-color="#153bff"></stop><stop offset="0.51" stop-color="#90c"></stop><stop offset="0.61" stop-color="#af0baa"></stop><stop offset="0.88" stop-color="#e82855"></stop><stop offset="1" stop-color="#f33"></stop></linearGradient><linearGradient id="linear-gradient-2" x1="29.71" y1="104.56" x2="125.11" y2="104.56" xlink:href="#linear-gradient"></linearGradient></defs><path d="M480.85,36.58H466.78A1.45,1.45,0,0,0,465.33,38v25.9s-.14,4.66,5.29,9.75l0,0s-4.3-4-7.15-6.15h0a25.06,25.06,0,0,0-15.31-5.28c-14.89,0-27,13.37-27,29.88s12.08,29.88,27,29.88a25.33,25.33,0,0,0,17.19-6.86l.23,4.16a1.44,1.44,0,0,0,1.44,1.45h14.07a1.45,1.45,0,0,0,1.45-1.45L482.29,38A1.44,1.44,0,0,0,480.85,36.58Zm-29.74,69.33a14.44,14.44,0,1,1,14.44-14.44A14.44,14.44,0,0,1,451.11,105.91Z" fill="#051f4e"></path><path d="M192.28,120.78h15.36a1.43,1.43,0,0,0,1.44-1.43V64.18a1.43,1.43,0,0,0-1.44-1.43H192.28a1.43,1.43,0,0,0-1.44,1.43v55.17a1.43,1.43,0,0,0,1.44,1.43" fill="#051f4e"></path><path d="M231,73.81h0s5-3.15,5-9v-.65a1.43,1.43,0,0,0-1.43-1.43H220.34a1.43,1.43,0,0,0-1.44,1.43v55.17a1.43,1.43,0,0,0,1.44,1.43h14.27a1.43,1.43,0,0,0,1.43-1.43V87.4A12.77,12.77,0,0,1,247.3,74.57,12.52,12.52,0,0,1,261,87v24.07a15.7,15.7,0,0,0,15.71,15.7h0a1.43,1.43,0,0,0,1.43-1.43V88.21c.51-7.94-1-17.08-7.52-22.36-6.2-5-14.41-6.19-22.12-5.08-7.53,1.09-12.1,7.64-12.1,7.64S232.89,73,231,73.81" fill="#051f4e"></path><path d="M180.72,103.46H150.87V38.16a1.45,1.45,0,0,0-1.44-1.47H134a1.46,1.46,0,0,0-1.44,1.47v81.2a1.44,1.44,0,0,0,1.44,1.42h46.68a1.4,1.4,0,0,0,1.44-1.36V104.83a1.41,1.41,0,0,0-1.44-1.37" fill="#051f4e"></path><path d="M385.45,61.31a30.3,30.3,0,1,0,30.29,30.3A30.31,30.31,0,0,0,385.45,61.31Zm0,44.54a14.38,14.38,0,1,1,14.38-14.37A14.37,14.37,0,0,1,385.45,105.85Z" fill="#051f4e"></path><path d="M348.15,64.58a1.44,1.44,0,0,0-1.44-1.44H330.45A1.44,1.44,0,0,0,329,64.58v.28c.07,1.06.63,5.08,5.26,9.43l0,0s-4.61-4.11-7.39-6.12A25,25,0,0,0,311.78,63a25.3,25.3,0,0,0-18.9,8.68,32,32,0,0,0,0,41.93,24.84,24.84,0,0,0,35.95,1.87l1.17-1.3v10.24a16.49,16.49,0,0,1-16.45,16.45h-1.39a16.35,16.35,0,0,1-9.37-3,17.56,17.56,0,0,0-18.15-1.46l-.3.16a1.43,1.43,0,0,0-.63,1.91,32.45,32.45,0,0,0,10.35,12.1,32,32,0,0,0,18.62,5.95h3.26a32.4,32.4,0,0,0,32.31-32.31Zm-31.57,41.8A14.38,14.38,0,1,1,329,94,14.39,14.39,0,0,1,316.58,106.38Z" fill="#051f4e"></path><path d="M550.77,63.06,534.6,63a1.44,1.44,0,0,0-1.44,1.43V65c.07,1.08.64,4.42,5.26,8.75l0,0s-4.55-4.14-7.07-6.13h0c-.21-.16-.42-.32-.64-.47A24.82,24.82,0,0,0,516,62.37c-14.83,0-26.85,13.32-26.85,29.75s12,29.75,26.85,29.75A25.18,25.18,0,0,0,533.16,115l.06,4.35a1.43,1.43,0,0,0,1.43,1.44h15.81a1.44,1.44,0,0,0,1.61-1.44L552,64.47S552.16,63,550.77,63.06Zm-32.5,42.77a14.38,14.38,0,1,1,14.38-14.38A14.38,14.38,0,0,1,518.27,105.83Z" fill="#051f4e"></path><circle cx="199.95" cy="46.17" r="9.58" fill="#051f4e"></circle><path d="M37.71,51.44a21,21,0,0,0,3.92,21.33,23.07,23.07,0,0,0,10.69,6.65c5.06,1.64,6.4,11.73,2,21.78-3.62,8.35-8.26,12.71-15.43,17.11A1.35,1.35,0,0,0,40,120.77c11.64-3.08,20.92-10.81,26.75-17.92C77.4,89.87,85,73.15,80.4,57.63,71.63,28.07,43.36,35,37.71,51.44Z" fill="url(#linear-gradient)"></path><circle cx="99.62" cy="104.56" r="17.85" fill="url(#linear-gradient-2)"></circle></svg> 